<mxfile host="app.diagrams.net" modified="2024-06-21T19:02:01.291Z" agent="Mozilla/5.0 (Windows NT 10.0; Win64; x64) AppleWebKit/537.36 (KHTML, like Gecko) Chrome/126.0.0.0 Safari/537.36" version="24.6.1" etag="eV2aK1VbZ45YUfrm3zEZ" type="github">
  <diagram name="Страница — 1" id="Vv_4JVD458qxNwkBwa7l">
    <mxGraphModel>
      <root>
        <mxCell id="0" />
        <mxCell id="1" parent="0" />
      </root>
    </mxGraphModel>
  </diagram>
</mxfile>
